<svg id="visual" viewBox="0 0 900 600" width="900" height="600" xmlns="http://www.w3.org/2000/svg" xmlns:xlink="http://www.w3.org/1999/xlink" version="1.1"><g transform="translate(443.00663951784196 317.1616393399289)"><path d="M130.3 -148.2C177.1 -116.1 228.9 -82.8 242.9 -37.7C257 7.3 233.3 64.2 197.2 101.8C161.1 139.4 112.6 157.8 64.6 173.7C16.5 189.5 -31.1 202.8 -79.3 195.1C-127.5 187.4 -176.3 158.7 -203.6 115.6C-230.9 72.4 -236.6 14.9 -231.2 -45.1C-225.8 -105.1 -209.3 -167.4 -168.9 -200.7C-128.6 -233.9 -64.3 -237.9 -11.2 -224.5C41.8 -211.1 83.6 -180.3 130.3 -148.2" fill="#deebf8"></path></g></svg>