<svg id="visual" viewBox="0 0 900 600" width="900" height="600" xmlns="http://www.w3.org/2000/svg" xmlns:xlink="http://www.w3.org/1999/xlink" version="1.1"><g transform="translate(452.25748394484776 289.4533975175942)"><path d="M129.3 -150.2C178.2 -113 235.8 -82.4 244.9 -41.6C254 -0.8 214.4 50.1 182.6 105.7C150.8 161.3 126.7 221.6 81.7 248.3C36.7 275 -29.2 268.1 -73.4 236.8C-117.7 205.5 -140.2 149.7 -173.1 97.6C-206 45.5 -249.3 -3 -250.7 -52.8C-252.2 -102.6 -211.9 -153.5 -163.2 -190.8C-114.4 -228 -57.2 -251.5 -8.5 -241.4C40.2 -231.2 80.4 -187.4 129.3 -150.2" fill="#fffad1"></path></g></svg>